<mxfile host="app.diagrams.net" modified="2023-01-05T06:27:08.265Z" agent="5.0 (Windows NT 10.0; Win64; x64) AppleWebKit/537.36 (KHTML, like Gecko) Chrome/108.0.0.0 Safari/537.36" version="20.8.0" etag="euqunzm8bhYlRAw4CUOH" type="github">
  <diagram id="TpxNGmHHkeHkaTgqY69X" name="第 1 页">
    <mxGraphModel dx="1221" dy="668" grid="0" gridSize="10" guides="1" tooltips="1" connect="1" arrows="1" fold="1" page="0" pageScale="1" pageWidth="827" pageHeight="1169" math="0" shadow="0">
      <root>
        <mxCell id="0" />
        <mxCell id="1" parent="0" />
        <mxCell id="UJNKqlgvKa0ZPdj7p_Qq-3" value="" style="edgeStyle=orthogonalEdgeStyle;rounded=0;orthogonalLoop=1;jettySize=auto;html=1;" edge="1" parent="1" source="UJNKqlgvKa0ZPdj7p_Qq-1" target="UJNKqlgvKa0ZPdj7p_Qq-2">
          <mxGeometry relative="1" as="geometry" />
        </mxCell>
        <mxCell id="UJNKqlgvKa0ZPdj7p_Qq-1" value="three for gis封装" style="rounded=1;whiteSpace=wrap;html=1;" vertex="1" parent="1">
          <mxGeometry x="137" y="207" width="120" height="60" as="geometry" />
        </mxCell>
        <mxCell id="UJNKqlgvKa0ZPdj7p_Qq-7" style="edgeStyle=orthogonalEdgeStyle;rounded=0;orthogonalLoop=1;jettySize=auto;html=1;exitX=0.25;exitY=1;exitDx=0;exitDy=0;entryX=0.11;entryY=-0.099;entryDx=0;entryDy=0;entryPerimeter=0;" edge="1" parent="1" source="UJNKqlgvKa0ZPdj7p_Qq-2" target="UJNKqlgvKa0ZPdj7p_Qq-4">
          <mxGeometry relative="1" as="geometry" />
        </mxCell>
        <mxCell id="UJNKqlgvKa0ZPdj7p_Qq-2" value="坐标系" style="whiteSpace=wrap;html=1;rounded=1;" vertex="1" parent="1">
          <mxGeometry x="337" y="207" width="755" height="60" as="geometry" />
        </mxCell>
        <mxCell id="UJNKqlgvKa0ZPdj7p_Qq-4" value="three.js中的单位1如何与模型代表的1米对应上" style="rounded=1;whiteSpace=wrap;html=1;" vertex="1" parent="1">
          <mxGeometry x="354" y="312" width="284" height="37" as="geometry" />
        </mxCell>
      </root>
    </mxGraphModel>
  </diagram>
</mxfile>
